<svg width="29" height="73" viewBox="0 0 29 73" fill="none" xmlns="http://www.w3.org/2000/svg">
<path d="M10.6337 38.9871C10.4031 41.889 10.0388 44.7948 9.8929 47.6975L0.0283813 47.7739L14.5222 72.542L28.7545 47.5941L18.8125 47.6223C18.6316 44.7182 18.2372 41.8239 17.9648 38.924L17.0328 26.0525C16.3417 17.4387 15.5251 8.85416 14.5223 0.259399L13.6503 0.259652C12.7496 8.86696 12.0556 17.4694 11.4294 26.0641L10.6337 38.9871ZM14.4978 26.2352L15.4703 39.119C15.5683 40.224 15.6899 41.3326 15.8066 42.4344C16.0273 44.1637 16.1964 45.9941 16.3052 47.7426L16.4486 50.1384L18.8482 50.1288L24.3214 50.0974L14.4725 67.3869L4.42625 50.2673L9.90629 50.2309L12.3059 50.2213L12.4165 47.8279C12.5074 46.0796 12.6803 44.271 12.8509 42.5166C12.9578 41.4186 13.07 40.2851 13.155 39.1717L13.9571 26.286L14.2189 22.9407L14.4978 26.2352Z" fill="url(#paint0_linear_298_2436)" fill-opacity="0.5"/>
<defs>
<linearGradient id="paint0_linear_298_2436" x1="14" y1="-1.07549e-07" x2="14" y2="73" gradientUnits="userSpaceOnUse">
<stop stop-color="#B3FF14"/>
<stop offset="1" stop-color="#A3C45E"/>
</linearGradient>
</defs>
</svg>
