<svg width="40" height="40" viewBox="0 0 40 40" fill="none" xmlns="http://www.w3.org/2000/svg">
<rect width="40" height="40" rx="20" fill="#141414"/>
<rect x="0.5" y="0.5" width="39" height="39" rx="19.5" stroke="url(#paint0_linear_131_276)" stroke-opacity="0.5"/>
<path d="M25.8333 17.5C25.8333 16.7339 25.6824 15.9754 25.3893 15.2676C25.0961 14.5599 24.6664 13.9168 24.1247 13.3752C23.5831 12.8335 22.94 12.4038 22.2323 12.1107C21.5245 11.8175 20.766 11.6666 20 11.6666C19.2339 11.6666 18.4754 11.8175 17.7676 12.1107C17.0599 12.4038 16.4168 12.8335 15.8752 13.3752C15.3335 13.9168 14.9038 14.5599 14.6107 15.2676C14.3175 15.9754 14.1666 16.7339 14.1666 17.5C14.1666 18.6558 14.5075 19.7308 15.0875 20.6375H15.0808L20 28.3333L24.9191 20.6375H24.9133C25.514 19.7013 25.8333 18.6123 25.8333 17.5ZM20 20C19.3369 20 18.701 19.7366 18.2322 19.2677C17.7634 18.7989 17.5 18.163 17.5 17.5C17.5 16.8369 17.7634 16.201 18.2322 15.7322C18.701 15.2634 19.3369 15 20 15C20.663 15 21.2989 15.2634 21.7677 15.7322C22.2366 16.201 22.5 16.8369 22.5 17.5C22.5 18.163 22.2366 18.7989 21.7677 19.2677C21.2989 19.7366 20.663 20 20 20Z" fill="#B0E443"/>
<defs>
<linearGradient id="paint0_linear_131_276" x1="20" y1="0" x2="20" y2="40" gradientUnits="userSpaceOnUse">
<stop stop-color="#4F6C11"/>
<stop offset="1" stop-color="#2A3219"/>
</linearGradient>
</defs>
</svg>
