<svg width="26" height="25" viewBox="0 0 26 25" fill="none" xmlns="http://www.w3.org/2000/svg">
<path d="M15.825 12.6C15.825 13.2329 15.6373 13.8516 15.2857 14.3778C14.9341 14.904 14.4343 15.3142 13.8496 15.5564C13.2649 15.7986 12.6215 15.862 12.0007 15.7385C11.38 15.615 10.8098 15.3102 10.3623 14.8627C9.91473 14.4152 9.60996 13.845 9.48649 13.2243C9.36301 12.6035 9.42638 11.9601 9.66859 11.3754C9.91079 10.7907 10.3209 10.2909 10.8472 9.93927C11.3734 9.58765 11.9921 9.39998 12.625 9.39998C13.4729 9.40261 14.2853 9.7406 14.8848 10.3401C15.4844 10.9397 15.8224 11.7521 15.825 12.6ZM22.625 8.19998V17C22.625 18.4852 22.035 19.9096 20.9848 20.9598C19.9346 22.01 18.5102 22.6 17.025 22.6H8.225C6.73979 22.6 5.31541 22.01 4.2652 20.9598C3.215 19.9096 2.625 18.4852 2.625 17V8.19998C2.625 6.71476 3.215 5.29038 4.2652 4.24018C5.31541 3.18997 6.73979 2.59998 8.225 2.59998H17.025C18.5102 2.59998 19.9346 3.18997 20.9848 4.24018C22.035 5.29038 22.625 6.71476 22.625 8.19998ZM17.425 12.6C17.425 11.6506 17.1435 10.7226 16.6161 9.93324C16.0886 9.14388 15.339 8.52866 14.4619 8.16535C13.5848 7.80205 12.6197 7.707 11.6886 7.89221C10.7575 8.07742 9.90218 8.53457 9.23089 9.20586C8.5596 9.87716 8.10244 10.7324 7.91723 11.6635C7.73202 12.5947 7.82708 13.5598 8.19038 14.4369C8.55368 15.3139 9.16891 16.0636 9.95826 16.591C10.7476 17.1185 11.6756 17.4 12.625 17.4C13.898 17.4 15.1189 16.8943 16.0191 15.9941C16.9193 15.0939 17.425 13.873 17.425 12.6ZM19.025 7.39998C19.025 7.16264 18.9546 6.93063 18.8228 6.73329C18.6909 6.53595 18.5035 6.38215 18.2842 6.29132C18.0649 6.2005 17.8237 6.17673 17.5909 6.22303C17.3581 6.26934 17.1443 6.38362 16.9765 6.55145C16.8087 6.71927 16.6944 6.93309 16.6481 7.16587C16.6018 7.39864 16.6255 7.63992 16.7163 7.8592C16.8072 8.07847 16.961 8.26588 17.1583 8.39774C17.3557 8.5296 17.5877 8.59998 17.825 8.59998C18.1433 8.59998 18.4485 8.47355 18.6735 8.2485C18.8986 8.02346 19.025 7.71824 19.025 7.39998Z" fill="#B0E443"/>
</svg>
