<svg width="25" height="24" viewBox="0 0 25 24" fill="none" xmlns="http://www.w3.org/2000/svg">
<path d="M13.3643 3.82261C14.2978 4.00472 15.1556 4.46123 15.8281 5.1337C16.5005 5.80617 16.9571 6.66402 17.1392 7.59743M13.3643 0C15.3036 0.215439 17.112 1.08388 18.4926 2.46272C19.8732 3.84157 20.7439 5.64887 20.9618 7.58788M20.0061 15.214V18.0809C20.0072 18.3471 19.9527 18.6105 19.8461 18.8544C19.7394 19.0983 19.5831 19.3172 19.3869 19.4971C19.1908 19.677 18.9593 19.814 18.7072 19.8993C18.455 19.9845 18.1879 20.0162 17.9228 19.9922C14.9821 19.6727 12.1573 18.6678 9.67552 17.0584C7.3665 15.5911 5.40886 13.6335 3.94161 11.3245C2.32654 8.83138 1.32144 5.99289 1.00776 3.03897C0.983875 2.7747 1.01528 2.50836 1.09998 2.25689C1.18467 2.00542 1.3208 1.77435 1.49969 1.57838C1.67859 1.3824 1.89633 1.22582 2.13905 1.11861C2.38177 1.0114 2.64416 0.955902 2.9095 0.955652H5.77646C6.24024 0.951087 6.68987 1.11532 7.04152 1.41774C7.39317 1.72016 7.62285 2.14013 7.68777 2.59937C7.80877 3.51686 8.03319 4.41772 8.35672 5.28476C8.4853 5.62681 8.51313 5.99855 8.43691 6.35593C8.36069 6.71331 8.18362 7.04135 7.92668 7.30118L6.713 8.51486C8.07342 10.9074 10.0544 12.8883 12.4469 14.2488L13.6606 13.0351C13.9204 12.7782 14.2485 12.6011 14.6058 12.5249C14.9632 12.4486 15.335 12.4765 15.677 12.6051C16.5441 12.9286 17.4449 13.153 18.3624 13.274C18.8266 13.3395 19.2506 13.5733 19.5537 13.931C19.8567 14.2887 20.0178 14.7453 20.0061 15.214Z" fill="#010100"/>
</svg>
