<svg width="25" height="25" viewBox="0 0 25 25" fill="none" xmlns="http://www.w3.org/2000/svg">
<rect width="25" height="25" fill="#F5F5F5"/>
<g id="Licences" clip-path="url(#clip0_27_198)">
<rect width="1920" height="3127" transform="translate(-883 -2084)" fill="white"/>
<g id="Frame 211">
<rect width="1920" height="2039.2" transform="translate(-883 -1596)" fill="#010100"/>
<g id="Default Container">
<g id="License wrapper">
<g id="license icon Containar">
<g id=" row">
<rect width="1224" height="85.2" transform="translate(-535 -30)" fill="#060606"/>
<g id="Frame" clip-path="url(#clip1_27_198)">
<path id="Vector" d="M13.4893 4.42258C14.4228 4.6047 15.2806 5.06121 15.9531 5.73368C16.6255 6.40615 17.0821 7.26399 17.2642 8.19741M13.4893 0.599976C15.4286 0.815414 17.237 1.68385 18.6176 3.0627C19.9982 4.44154 20.8689 6.24884 21.0868 8.18785M20.1311 15.814V18.6809C20.1322 18.9471 20.0777 19.2105 19.9711 19.4544C19.8644 19.6982 19.7081 19.9171 19.5119 20.0971C19.3158 20.277 19.0843 20.414 18.8322 20.4992C18.58 20.5845 18.3129 20.6162 18.0478 20.5922C15.1071 20.2727 12.2823 19.2678 9.80052 17.6584C7.4915 16.1911 5.53386 14.2335 4.06661 11.9245C2.45154 9.43135 1.44644 6.59286 1.13276 3.63895C1.10888 3.37468 1.14028 3.10833 1.22498 2.85687C1.30967 2.6054 1.4458 2.37432 1.62469 2.17835C1.80359 1.98238 2.02133 1.8258 2.26405 1.71859C2.50677 1.61138 2.76916 1.55588 3.0345 1.55563H5.90146C6.36524 1.55106 6.81487 1.7153 7.16652 2.01772C7.51817 2.32014 7.74785 2.74011 7.81277 3.19935C7.93377 4.11684 8.15819 5.01769 8.48172 5.88473C8.6103 6.22678 8.63813 6.59852 8.56191 6.9559C8.48569 7.31328 8.30862 7.64133 8.05168 7.90116L6.838 9.11484C8.19842 11.5074 10.1794 13.4883 12.5719 14.8487L13.7856 13.6351C14.0454 13.3781 14.3735 13.2011 14.7308 13.1248C15.0882 13.0486 15.46 13.0764 15.802 13.205C16.6691 13.5286 17.5699 13.753 18.4874 13.874C18.9516 13.9395 19.3756 14.1733 19.6787 14.531C19.9817 14.8887 20.1428 15.3453 20.1311 15.814Z" fill="#B0E443"/>
</g>
</g>
</g>
</g>
</g>
</g>
</g>
<defs>
<clipPath id="clip0_27_198">
<rect width="1920" height="3127" fill="white" transform="translate(-883 -2084)"/>
</clipPath>
<clipPath id="clip1_27_198">
<rect width="24" height="24" fill="white" transform="translate(0.625 0.599976)"/>
</clipPath>
</defs>
</svg>
