<svg width="25" height="25" viewBox="0 0 25 25" fill="none" xmlns="http://www.w3.org/2000/svg">
<path d="M10.625 15.6L15.815 12.6L10.625 9.59998V15.6ZM22.185 7.76998C22.315 8.23998 22.405 8.86998 22.465 9.66998C22.535 10.47 22.565 11.16 22.565 11.76L22.625 12.6C22.625 14.79 22.465 16.4 22.185 17.43C21.935 18.33 21.355 18.91 20.455 19.16C19.985 19.29 19.125 19.38 17.805 19.44C16.505 19.51 15.315 19.54 14.215 19.54L12.625 19.6C8.435 19.6 5.825 19.44 4.795 19.16C3.895 18.91 3.315 18.33 3.065 17.43C2.935 16.96 2.845 16.33 2.785 15.53C2.715 14.73 2.685 14.04 2.685 13.44L2.625 12.6C2.625 10.41 2.785 8.79998 3.065 7.76998C3.315 6.86998 3.895 6.28998 4.795 6.03998C5.265 5.90998 6.125 5.81998 7.445 5.75998C8.745 5.68998 9.935 5.65998 11.035 5.65998L12.625 5.59998C16.815 5.59998 19.425 5.75998 20.455 6.03998C21.355 6.28998 21.935 6.86998 22.185 7.76998Z" fill="#B0E443"/>
</svg>
