<svg width="30" height="30" viewBox="0 0 30 30" fill="none" xmlns="http://www.w3.org/2000/svg">
<circle cx="15" cy="15" r="15" fill="#1E1E1E"/>
<path d="M15.7792 11.9167C16.3489 12.0278 16.8726 12.3065 17.283 12.717C17.6935 13.1275 17.9722 13.6511 18.0833 14.2208M15.7792 9.58334C16.9629 9.71485 18.0668 10.2449 18.9095 11.0866C19.7522 11.9283 20.2837 13.0314 20.4167 14.215M19.8333 18.87V20.62C19.834 20.7825 19.8007 20.9433 19.7356 21.0921C19.6705 21.241 19.5751 21.3746 19.4554 21.4844C19.3357 21.5943 19.1943 21.6779 19.0404 21.7299C18.8865 21.782 18.7235 21.8013 18.5617 21.7867C16.7667 21.5916 15.0424 20.9783 13.5275 19.9958C12.1181 19.1002 10.9231 17.9053 10.0275 16.4958C9.04166 14.974 8.42814 13.2414 8.23667 11.4383C8.22209 11.277 8.24126 11.1145 8.29296 10.961C8.34466 10.8075 8.42775 10.6664 8.53695 10.5468C8.64615 10.4272 8.77905 10.3316 8.92721 10.2661C9.07537 10.2007 9.23553 10.1668 9.3975 10.1667H11.1475C11.4306 10.1639 11.705 10.2641 11.9197 10.4487C12.1343 10.6333 12.2745 10.8897 12.3142 11.17C12.388 11.73 12.525 12.2799 12.7225 12.8092C12.801 13.018 12.818 13.2449 12.7714 13.463C12.7249 13.6812 12.6168 13.8814 12.46 14.04L11.7192 14.7808C12.5496 16.2412 13.7588 17.4504 15.2192 18.2808L15.96 17.54C16.1186 17.3832 16.3188 17.2751 16.537 17.2286C16.7551 17.182 16.982 17.199 17.1908 17.2775C17.7201 17.475 18.27 17.612 18.83 17.6858C19.1134 17.7258 19.3722 17.8685 19.5571 18.0869C19.7421 18.3052 19.8404 18.5839 19.8333 18.87Z" fill="#B0E443"/>
</svg>
