<svg width="25" height="25" viewBox="0 0 25 25" fill="none" xmlns="http://www.w3.org/2000/svg">
<path d="M23.0841 6.59998C22.3141 6.94998 21.4841 7.17998 20.6241 7.28998C21.5041 6.75998 22.1841 5.91998 22.5041 4.90998C21.6741 5.40998 20.7541 5.75998 19.7841 5.95998C18.9941 5.09998 17.8841 4.59998 16.6241 4.59998C14.2741 4.59998 12.3541 6.51998 12.3541 8.88998C12.3541 9.22998 12.3941 9.55998 12.4641 9.86998C8.90406 9.68998 5.73406 7.97998 3.62406 5.38998C3.25406 6.01998 3.04406 6.75998 3.04406 7.53998C3.04406 9.02998 3.79406 10.35 4.95406 11.1C4.24406 11.1 3.58406 10.9 3.00406 10.6V10.63C3.00406 12.71 4.48406 14.45 6.44406 14.84C5.81479 15.0122 5.15416 15.0361 4.51406 14.91C4.78567 15.7625 5.3176 16.5084 6.03508 17.0429C6.75256 17.5774 7.61951 17.8737 8.51406 17.89C6.99769 19.0904 5.11806 19.7393 3.18406 19.73C2.84406 19.73 2.50406 19.71 2.16406 19.67C4.06406 20.89 6.32406 21.6 8.74406 21.6C16.6241 21.6 20.9541 15.06 20.9541 9.38998C20.9541 9.19998 20.9541 9.01998 20.9441 8.82998C21.7841 8.22998 22.5041 7.46998 23.0841 6.59998Z" fill="#B0E443"/>
</svg>
