<svg width="19" height="18" viewBox="0 0 19 18" fill="none" xmlns="http://www.w3.org/2000/svg">
<rect x="0.380768" width="18" height="18" rx="2" fill="#B0E443"/>
<path d="M4.82497 3C4.02738 3 3.38077 3.64661 3.38077 4.4442C3.38077 5.24179 4.02738 5.8884 4.82497 5.8884C5.62256 5.8884 6.26917 5.24179 6.26917 4.4442C6.26917 3.64661 5.62256 3 4.82497 3ZM12.4136 6.8337C11.209 6.8337 10.4081 7.49344 10.0766 8.12035H10.0241V7.01751H7.66086V15H10.1291V11.0613C10.1291 10.0208 10.3359 9.01313 11.6258 9.01313C12.8961 9.01313 12.9125 10.1882 12.9125 11.1138V15H15.3808V10.6149C15.3808 8.46827 14.9245 6.8337 12.4136 6.8337ZM3.61709 7.01751V15H6.11162V7.01751H3.61709Z" fill="black"/>
</svg>
