<svg width="50" height="50" viewBox="0 0 50 50" fill="none" xmlns="http://www.w3.org/2000/svg">
<rect width="50" height="50" fill="#141414"/>
<path d="M36.6667 13.3335H13.3333C11.7292 13.3335 10.4312 14.646 10.4312 16.2502L10.4167 33.7502C10.4167 35.3543 11.7292 36.6668 13.3333 36.6668H36.6667C38.2708 36.6668 39.5833 35.3543 39.5833 33.7502V16.2502C39.5833 14.646 38.2708 13.3335 36.6667 13.3335ZM36.0833 19.5314L25.7729 25.9772C25.3062 26.2689 24.6937 26.2689 24.2271 25.9772L13.9167 19.5314C13.7704 19.4493 13.6424 19.3384 13.5402 19.2054C13.4381 19.0724 13.364 18.92 13.3225 18.7576C13.281 18.5951 13.2728 18.4259 13.2986 18.2602C13.3243 18.0945 13.3834 17.9357 13.4723 17.7935C13.5612 17.6513 13.678 17.5286 13.8156 17.4329C13.9533 17.3371 14.109 17.2703 14.2732 17.2364C14.4375 17.2026 14.6069 17.2024 14.7712 17.2359C14.9355 17.2694 15.0913 17.3359 15.2292 17.4314L25 23.5418L34.7708 17.4314C34.9087 17.3359 35.0645 17.2694 35.2288 17.2359C35.3931 17.2024 35.5625 17.2026 35.7268 17.2364C35.891 17.2703 36.0467 17.3371 36.1843 17.4329C36.322 17.5286 36.4388 17.6513 36.5277 17.7935C36.6166 17.9357 36.6757 18.0945 36.7014 18.2602C36.7272 18.4259 36.719 18.5951 36.6775 18.7576C36.6359 18.92 36.5619 19.0724 36.4597 19.2054C36.3576 19.3384 36.2296 19.4493 36.0833 19.5314Z" fill="#B0E443"/>
</svg>
