<svg width="122" height="34" viewBox="0 0 122 34" fill="none" xmlns="http://www.w3.org/2000/svg">
<path d="M30.1831 31.0779V29.4217C30.1831 29.358 30.1831 29.358 30.1167 29.2943L27.7949 26.6825H28.9227C29.586 27.3832 30.4484 28.4025 30.7138 28.7847C30.9791 28.4025 31.9079 27.4469 32.5049 26.6825H33.5663L31.1781 29.2943C31.1781 29.358 31.1118 29.358 31.1118 29.4217V31.0142H30.1831V31.0779Z" fill="#CFCFCC"/>
<path d="M39.6696 28.9121C39.6696 30.1224 38.6082 31.2053 36.6844 31.2053C34.827 31.2053 33.6992 30.1861 33.6992 28.9121C33.6992 27.7017 34.8933 26.6825 36.6844 26.6825C38.5419 26.6825 39.6696 27.7017 39.6696 28.9121ZM34.6943 28.9121C34.6943 29.8039 35.3577 30.632 36.6844 30.632C38.0112 30.632 38.6745 29.8676 38.6745 28.9758C38.6745 28.0839 38.0112 27.3195 36.6181 27.3195C35.424 27.2558 34.6943 28.0202 34.6943 28.9121Z" fill="#CFCFCC"/>
<path d="M41.792 26.7462V29.2306C41.792 30.3135 42.5881 30.632 43.4505 30.632C44.4455 30.632 44.9762 30.3135 44.9762 29.2306V26.7462H45.9049V29.2306C45.9049 30.632 44.9762 31.2053 43.3841 31.2053C41.8583 31.2053 40.8633 30.632 40.8633 29.2943V26.8099H41.792V26.7462Z" fill="#CFCFCC"/>
<path d="M54.9942 29.8039C54.6626 30.5683 53.9328 31.2053 52.3407 31.2053C50.4169 31.2053 49.4219 30.1861 49.4219 28.9758C49.4219 27.7654 50.5496 26.6825 52.4071 26.6825C54.0655 26.6825 54.8616 27.3832 55.0606 28.0839H54.1319C53.9328 27.7017 53.4685 27.2558 52.4071 27.2558C51.1467 27.2558 50.4169 27.9565 50.4169 28.9121C50.4169 29.8676 51.1467 30.632 52.4071 30.632C53.4021 30.632 53.8002 30.3135 54.1319 29.8039H54.9942Z" fill="#CFCFCC"/>
<path d="M57.1155 29.8676L56.4521 31.0779H55.457L57.8452 26.7462H58.9729L61.4938 31.0779H60.4987L59.769 29.8676H57.1155ZM59.5036 29.2943C58.8403 28.1477 58.5749 27.5744 58.4422 27.3196C58.3096 27.6381 57.9779 28.3388 57.4472 29.2943H59.5036Z" fill="#CFCFCC"/>
<path d="M62.3574 31.0779V26.7462H63.4852C64.8119 28.2113 66.3377 29.7402 66.6694 30.1861C66.603 29.6765 66.603 28.9121 66.603 28.2113V26.6825H67.4654V31.0142H66.404C65.608 30.1861 63.5515 27.8928 63.1535 27.3832C63.2198 27.9565 63.2198 28.5299 63.2198 29.2943V30.9505H62.3574V31.0779Z" fill="#CFCFCC"/>
<path d="M71.4453 26.7462H73.8335C75.6909 26.7462 76.7523 27.6381 76.7523 28.8484C76.7523 30.2498 75.4919 31.0779 73.8335 31.0779H71.5116V26.7462H71.4453ZM72.374 30.5046H73.6345C75.0276 30.5046 75.7573 29.8676 75.7573 28.8484C75.7573 27.8929 74.9612 27.3196 73.7008 27.3196H72.374V30.5046Z" fill="#CFCFCC"/>
<path d="M83.5856 28.9121C83.5856 30.1224 82.5242 31.2053 80.6004 31.2053C78.743 31.2053 77.6152 30.1861 77.6152 28.9121C77.6152 27.7017 78.8093 26.6825 80.6004 26.6825C82.4579 26.6825 83.5856 27.7017 83.5856 28.9121ZM78.6103 28.9121C78.6103 29.8039 79.2737 30.632 80.6004 30.632C81.9272 30.632 82.5906 29.8676 82.5906 28.9758C82.5906 28.0839 81.9272 27.3195 80.5341 27.3195C79.2737 27.2558 78.6103 28.0202 78.6103 28.9121Z" fill="#CFCFCC"/>
<path d="M88.0303 26.7462V31.0779H87.1016V26.7462H88.0303Z" fill="#CFCFCC"/>
<path d="M91.0818 27.3832H88.959V26.8099H94.1333V27.3832H92.0105V31.1416H91.0818V27.3832Z" fill="#CFCFCC"/>
<path d="M49.5547 14.5157H50.7488V19.1658H54.928L54.729 19.9302H49.5547V14.5157Z" fill="#CFCFCC"/>
<path d="M57.1179 14.5157V19.9302H55.9238V14.5157H57.1179Z" fill="#CFCFCC"/>
<path d="M59.1074 14.5157H64.5471V15.2801H60.2352V16.8726H64.2154V17.637H60.2352V19.9302H59.1074V14.5157Z" fill="#CFCFCC"/>
<path d="M71.2464 17.4459H67.0671V19.1658H71.6444L71.5118 19.9302H65.873V14.5157H71.4454V15.2801H67.0671V16.7452H71.2464V17.4459Z" fill="#CFCFCC"/>
<path d="M11.0778 30.8231H8.49061C7.62822 30.8231 6.96484 30.1224 6.96484 29.358V4.642C6.96484 3.81389 7.69456 3.17688 8.49061 3.17688H11.0778C11.9402 3.17688 12.6035 3.87759 12.6035 4.642V29.358C12.6035 30.1861 11.9402 30.8231 11.0778 30.8231Z" fill="#CFCFCC"/>
<path d="M4.17928 27.5743H1.52577C0.663377 27.5743 0 26.9373 0 26.1092V7.82703C0 6.99892 0.663377 6.36191 1.52577 6.36191H4.17928C5.04167 6.36191 5.70504 6.99892 5.70504 7.82703V26.1092C5.70504 26.9373 5.04167 27.5743 4.17928 27.5743Z" fill="#CFCFCC"/>
<path d="M17.9782 33.6896H15.4573C14.595 33.6896 13.8652 32.9889 13.8652 32.1608V1.83916C13.8652 1.01104 14.595 0.310333 15.4573 0.310333H17.9782C18.8406 0.310333 19.5703 1.01104 19.5703 1.83916V32.1608C19.5039 32.9889 18.8406 33.6896 17.9782 33.6896Z" fill="#CFCFCC"/>
<path d="M46.9667 14.9616H16.584V18.8473H46.9667V14.9616Z" fill="#CFCFCC"/>
<path d="M110.053 30.8231H112.641C113.503 30.8231 114.166 30.1224 114.166 29.358V4.642C114.166 3.81389 113.437 3.17688 112.641 3.17688H110.053C109.191 3.17688 108.528 3.87759 108.528 4.642V29.358C108.461 30.1861 109.191 30.8231 110.053 30.8231Z" fill="#CFCFCC"/>
<path d="M116.887 27.5743H119.541C120.403 27.5743 121.066 26.9373 121.066 26.1092V7.82703C121.066 6.99892 120.403 6.36191 119.541 6.36191H116.887C116.025 6.36191 115.361 6.99892 115.361 7.82703V26.1092C115.361 26.9373 116.091 27.5743 116.887 27.5743Z" fill="#CFCFCC"/>
<path d="M103.155 33.6896H105.675C106.538 33.6896 107.268 32.9889 107.268 32.1608V1.83916C107.268 1.01104 106.538 0.310333 105.675 0.310333H103.155C102.292 0.310333 101.562 1.01104 101.562 1.83916V32.1608C101.562 32.9889 102.292 33.6896 103.155 33.6896Z" fill="#CFCFCC"/>
<path d="M103.951 15.089H73.5684V18.9747H103.951V15.089Z" fill="#CFCFCC"/>
<path d="M31.0571 5.47639H28.0821V3.72539C28.0821 3.47606 27.9404 3.35139 27.6571 3.35139H27.0621C26.7788 3.35139 26.6371 3.47606 26.6371 3.72539V9.98139C26.6371 10.2307 26.7788 10.3554 27.0621 10.3554H27.6571C27.9404 10.3554 28.0821 10.2307 28.0821 9.98139V8.29839H31.0571V10.2024C31.0571 11.6077 30.2241 12.3104 28.5581 12.3104H26.1611C24.4951 12.3104 23.6621 11.6077 23.6621 10.2024V3.50439C23.6621 2.09906 24.4951 1.39639 26.1611 1.39639H28.5581C30.2241 1.39639 31.0571 2.09906 31.0571 3.50439V5.47639Z" fill="#CFCFCC"/>
<path d="M35.1391 8.43439V12.3104H32.1641V1.39639H37.2131C38.8791 1.39639 39.7121 2.09906 39.7121 3.50439V6.32639C39.7121 7.40306 39.2248 8.06606 38.2501 8.31539L40.2561 12.3104H37.0601L35.3261 8.43439H35.1391ZM36.3121 3.52139H35.1391V6.41139H36.3121C36.5954 6.41139 36.7371 6.28673 36.7371 6.03739V3.89539C36.7371 3.64606 36.5954 3.52139 36.3121 3.52139Z" fill="#CFCFCC"/>
<path d="M43.3445 1.39639H45.8605C47.5265 1.39639 48.3595 2.09906 48.3595 3.50439V10.2024C48.3595 11.6077 47.5265 12.3104 45.8605 12.3104H43.3445C41.6785 12.3104 40.8455 11.6077 40.8455 10.2024V3.50439C40.8455 2.09906 41.6785 1.39639 43.3445 1.39639ZM45.3845 9.81139V3.89539C45.3845 3.64606 45.2429 3.52139 44.9595 3.52139H44.2455C43.9622 3.52139 43.8205 3.64606 43.8205 3.89539V9.81139C43.8205 10.0607 43.9622 10.1854 44.2455 10.1854H44.9595C45.2429 10.1854 45.3845 10.0607 45.3845 9.81139Z" fill="#CFCFCC"/>
<path d="M53.8441 9.81139V8.26439C53.8441 8.01506 53.7025 7.89039 53.4191 7.89039H51.7871C50.9485 7.89039 50.3535 7.70906 50.0021 7.34639C49.6621 6.97239 49.4921 6.43973 49.4921 5.74839V3.50439C49.4921 2.09906 50.3195 1.39639 51.9741 1.39639H54.3031C55.9578 1.39639 56.7851 2.09906 56.7851 3.50439V4.81339H53.8101V3.89539C53.8101 3.64606 53.6685 3.52139 53.3851 3.52139H52.8921C52.6088 3.52139 52.4671 3.64606 52.4671 3.89539V5.51039C52.4671 5.75973 52.6088 5.88439 52.8921 5.88439H54.4901C55.3288 5.88439 55.9238 6.06006 56.2752 6.41139C56.6378 6.76273 56.8191 7.27839 56.8191 7.95839V10.2024C56.8191 11.6077 55.9918 12.3104 54.3371 12.3104H52.0251C50.3591 12.3104 49.5261 11.6077 49.5261 10.2024V8.89339H52.5011V9.81139C52.5011 10.0607 52.6428 10.1854 52.9261 10.1854H53.4191C53.7025 10.1854 53.8441 10.0607 53.8441 9.81139Z" fill="#CFCFCC"/>
<path d="M62.1947 9.81139V8.26439C62.1947 8.01506 62.0531 7.89039 61.7697 7.89039H60.1377C59.2991 7.89039 58.7041 7.70906 58.3527 7.34639C58.0127 6.97239 57.8427 6.43973 57.8427 5.74839V3.50439C57.8427 2.09906 58.6701 1.39639 60.3247 1.39639H62.6537C64.3084 1.39639 65.1357 2.09906 65.1357 3.50439V4.81339H62.1607V3.89539C62.1607 3.64606 62.0191 3.52139 61.7357 3.52139H61.2427C60.9594 3.52139 60.8177 3.64606 60.8177 3.89539V5.51039C60.8177 5.75973 60.9594 5.88439 61.2427 5.88439H62.8407C63.6794 5.88439 64.2744 6.06006 64.6257 6.41139C64.9884 6.76273 65.1697 7.27839 65.1697 7.95839V10.2024C65.1697 11.6077 64.3424 12.3104 62.6877 12.3104H60.3757C58.7097 12.3104 57.8767 11.6077 57.8767 10.2024V8.89339H60.8517V9.81139C60.8517 10.0607 60.9934 10.1854 61.2767 10.1854H61.7697C62.0531 10.1854 62.1947 10.0607 62.1947 9.81139Z" fill="#CFCFCC"/>
<path d="M73.2313 1.39639V3.52139L69.1343 10.1854H73.1123V12.3104H66.0233V10.1854L70.1203 3.52139H66.2443V1.39639H73.2313Z" fill="#CFCFCC"/>
<path d="M76.6971 1.39639H79.2131C80.8791 1.39639 81.7121 2.09906 81.7121 3.50439V10.2024C81.7121 11.6077 80.8791 12.3104 79.2131 12.3104H76.6971C75.0311 12.3104 74.1981 11.6077 74.1981 10.2024V3.50439C74.1981 2.09906 75.0311 1.39639 76.6971 1.39639ZM78.7371 9.81139V3.89539C78.7371 3.64606 78.5954 3.52139 78.3121 3.52139H77.5981C77.3147 3.52139 77.1731 3.64606 77.1731 3.89539V9.81139C77.1731 10.0607 77.3147 10.1854 77.5981 10.1854H78.3121C78.5954 10.1854 78.7371 10.0607 78.7371 9.81139Z" fill="#CFCFCC"/>
<path d="M87.9957 1.39639H90.7157V12.3104H88.1657L85.7347 6.58139V12.3104H83.0147V1.39639H85.5647L87.9957 7.22739V1.39639Z" fill="#CFCFCC"/>
<path d="M95.0541 10.1854H98.7771V12.3104H92.0791V1.39639H98.6241V3.52139H95.0541V5.74839H98.1311V7.87339H95.0541V10.1854Z" fill="#CFCFCC"/>
</svg>
