<svg width="100" height="100" viewBox="0 0 100 100" fill="none" xmlns="http://www.w3.org/2000/svg">
<path d="M49.9993 70.8337C52.2095 70.8337 54.3291 69.9557 55.8919 68.3929C57.4547 66.8301 58.3327 64.7105 58.3327 62.5003C58.3327 60.2902 57.4547 58.1706 55.8919 56.6078C54.3291 55.045 52.2095 54.167 49.9993 54.167C47.7892 54.167 45.6696 55.045 44.1068 56.6078C42.544 58.1706 41.666 60.2902 41.666 62.5003C41.666 64.7105 42.544 66.8301 44.1068 68.3929C45.6696 69.9557 47.7892 70.8337 49.9993 70.8337ZM74.9993 33.3337C77.2095 33.3337 79.3291 34.2116 80.8919 35.7744C82.4547 37.3372 83.3327 39.4569 83.3327 41.667V83.3337C83.3327 85.5438 82.4547 87.6634 80.8919 89.2262C79.3291 90.789 77.2095 91.667 74.9993 91.667H24.9993C22.7892 91.667 20.6696 90.789 19.1068 89.2262C17.544 87.6634 16.666 85.5438 16.666 83.3337V41.667C16.666 39.4569 17.544 37.3372 19.1068 35.7744C20.6696 34.2116 22.7892 33.3337 24.9993 33.3337H29.166V25.0003C29.166 19.475 31.3609 14.1759 35.268 10.2689C39.175 6.36193 44.474 4.16699 49.9993 4.16699C52.7352 4.16699 55.4443 4.70586 57.9719 5.75284C60.4995 6.79981 62.7962 8.33438 64.7307 10.2689C66.6653 12.2035 68.1999 14.5001 69.2468 17.0278C70.2938 19.5554 70.8327 22.2645 70.8327 25.0003V33.3337H74.9993ZM49.9993 12.5003C46.6841 12.5003 43.5047 13.8173 41.1605 16.1615C38.8163 18.5057 37.4993 21.6851 37.4993 25.0003V33.3337H62.4993V25.0003C62.4993 21.6851 61.1824 18.5057 58.8382 16.1615C56.494 13.8173 53.3146 12.5003 49.9993 12.5003Z" fill="#B0E443"/>
</svg>
